<svg viewBox="0 0 79 28"  xmlns="http://www.w3.org/2000/svg">
<path d="M1.73438 22V4.9375H6.77344C8.28125 4.9375 9.61719 5.27344 10.7812 5.94531C11.9531 6.61719 12.8594 7.57031 13.5 8.80469C14.1406 10.0391 14.4609 11.4531 14.4609 13.0469V13.9023C14.4609 15.5195 14.1367 16.9414 13.4883 18.168C12.8477 19.3945 11.9297 20.3398 10.7344 21.0039C9.54688 21.668 8.18359 22 6.64453 22H1.73438ZM4.69922 7.32812V19.6328H6.63281C8.1875 19.6328 9.37891 19.1484 10.207 18.1797C11.043 17.2031 11.4688 15.8047 11.4844 13.9844V13.0352C11.4844 11.1836 11.082 9.76953 10.2773 8.79297C9.47266 7.81641 8.30469 7.32812 6.77344 7.32812H4.69922ZM16.6055 15.543C16.6055 14.3008 16.8516 13.1836 17.3438 12.1914C17.8359 11.1914 18.5273 10.4258 19.418 9.89453C20.3086 9.35547 21.332 9.08594 22.4883 9.08594C24.1992 9.08594 25.5859 9.63672 26.6484 10.7383C27.7188 11.8398 28.2969 13.3008 28.3828 15.1211L28.3945 15.7891C28.3945 17.0391 28.1523 18.1562 27.668 19.1406C27.1914 20.125 26.5039 20.8867 25.6055 21.4258C24.7148 21.9648 23.6836 22.2344 22.5117 22.2344C20.7227 22.2344 19.2891 21.6406 18.2109 20.4531C17.1406 19.2578 16.6055 17.668 16.6055 15.6836V15.543ZM19.4531 15.7891C19.4531 17.0938 19.7227 18.1172 20.2617 18.8594C20.8008 19.5938 21.5508 19.9609 22.5117 19.9609C23.4727 19.9609 24.2188 19.5859 24.75 18.8359C25.2891 18.0859 25.5586 16.9883 25.5586 15.543C25.5586 14.2617 25.2812 13.2461 24.7266 12.4961C24.1797 11.7461 23.4336 11.3711 22.4883 11.3711C21.5586 11.3711 20.8203 11.7422 20.2734 12.4844C19.7266 13.2188 19.4531 14.3203 19.4531 15.7891ZM30.2695 15.543C30.2695 14.3008 30.5156 13.1836 31.0078 12.1914C31.5 11.1914 32.1914 10.4258 33.082 9.89453C33.9727 9.35547 34.9961 9.08594 36.1523 9.08594C37.8633 9.08594 39.25 9.63672 40.3125 10.7383C41.3828 11.8398 41.9609 13.3008 42.0469 15.1211L42.0586 15.7891C42.0586 17.0391 41.8164 18.1562 41.332 19.1406C40.8555 20.125 40.168 20.8867 39.2695 21.4258C38.3789 21.9648 37.3477 22.2344 36.1758 22.2344C34.3867 22.2344 32.9531 21.6406 31.875 20.4531C30.8047 19.2578 30.2695 17.668 30.2695 15.6836V15.543ZM33.1172 15.7891C33.1172 17.0938 33.3867 18.1172 33.9258 18.8594C34.4648 19.5938 35.2148 19.9609 36.1758 19.9609C37.1367 19.9609 37.8828 19.5859 38.4141 18.8359C38.9531 18.0859 39.2227 16.9883 39.2227 15.543C39.2227 14.2617 38.9453 13.2461 38.3906 12.4961C37.8438 11.7461 37.0977 11.3711 36.1523 11.3711C35.2227 11.3711 34.4844 11.7422 33.9375 12.4844C33.3906 13.2188 33.1172 14.3203 33.1172 15.7891ZM51.1055 11.9219C50.7305 11.8594 50.3438 11.8281 49.9453 11.8281C48.6406 11.8281 47.7617 12.3281 47.3086 13.3281V22H44.4609V9.32031H47.1797L47.25 10.7383C47.9375 9.63672 48.8906 9.08594 50.1094 9.08594C50.5156 9.08594 50.8516 9.14062 51.1172 9.25L51.1055 11.9219ZM65.2148 6.78906H59.7305V22H57.4922V6.78906H52.0195V4.9375H65.2148V6.78906ZM65.6602 15.543C65.6602 14.3008 65.9023 13.1836 66.3867 12.1914C66.8789 11.1992 67.5586 10.4336 68.4258 9.89453C69.3008 9.35547 70.2969 9.08594 71.4141 9.08594C73.1406 9.08594 74.5352 9.68359 75.5977 10.8789C76.668 12.0742 77.2031 13.6641 77.2031 15.6484V15.8008C77.2031 17.0352 76.9648 18.1445 76.4883 19.1289C76.0195 20.1055 75.3438 20.8672 74.4609 21.4141C73.5859 21.9609 72.5781 22.2344 71.4375 22.2344C69.7188 22.2344 68.3242 21.6367 67.2539 20.4414C66.1914 19.2461 65.6602 17.6641 65.6602 15.6953V15.543ZM67.8398 15.8008C67.8398 17.207 68.1641 18.3359 68.8125 19.1875C69.4688 20.0391 70.3438 20.4648 71.4375 20.4648C72.5391 20.4648 73.4141 20.0352 74.0625 19.1758C74.7109 18.3086 75.0352 17.0977 75.0352 15.543C75.0352 14.1523 74.7031 13.0273 74.0391 12.168C73.3828 11.3008 72.5078 10.8672 71.4141 10.8672C70.3438 10.8672 69.4805 11.293 68.8242 12.1445C68.168 12.9961 67.8398 14.2148 67.8398 15.8008Z" />
<circle cx="24.5" cy="15.5" r="2.5" />
<circle cx="38.5" cy="15.5" r="2.5" />
</svg>
